<?xml version="1.0" encoding="UTF-8"?>
<svg id="_レイヤー_2" data-name="レイヤー 2" xmlns="http://www.w3.org/2000/svg" viewBox="0 0 500 840">
  <defs>
    <style>
      .cls-1 {
        fill: none;
      }

      .cls-1, .cls-2, .cls-3, .cls-4, .cls-5 {
        stroke-width: 0px;
      }

      .cls-2 {
        fill: #fcdede;
      }

      .cls-3 {
        fill: #ffa4a4;
      }

      .cls-4 {
        fill: #fff;
      }

      .cls-5 {
        fill: #f95d5d;
      }
    </style>
  </defs>
  <g id="_レイヤー_1-2" data-name="レイヤー 1">
    <g>
      <path class="cls-1" d="M376.46,749.15c-1.37.28-2.76.49-4.17.64,1.41-.14,2.8-.36,4.17-.64Z"/>
      <path class="cls-1" d="M382.44,747.45c-1.93.71-3.93,1.28-5.98,1.7,2.05-.42,4.05-.99,5.98-1.7Z"/>
      <path class="cls-1" d="M116.05,746.86c-1.07-.44-2.12-.93-3.15-1.45,1.03.52,2.07,1.01,3.15,1.45Z"/>
      <path class="cls-1" d="M96.78,730.87c-1.14-1.75-2.15-3.59-3.02-5.5.87,1.92,1.88,3.75,3.02,5.5Z"/>
      <path class="cls-1" d="M102.23,737.63c-.85-.86-1.66-1.75-2.44-2.68.78.93,1.59,1.82,2.44,2.68Z"/>
      <path class="cls-1" d="M405.41,112.91c.32.63.62,1.26.91,1.9-.29-.64-.59-1.28-.91-1.9Z"/>
      <path class="cls-1" d="M99.32,734.38c-.63-.78-1.24-1.59-1.81-2.42.58.83,1.18,1.63,1.81,2.42Z"/>
      <path class="cls-1" d="M372.29,90.22c1.41.14,2.8.36,4.17.64-1.37-.28-2.76-.49-4.17-.64Z"/>
      <path class="cls-1" d="M403.53,109.61c.28.45.56.9.82,1.36-.27-.46-.54-.91-.82-1.36Z"/>
      <path class="cls-1" d="M92.11,721.15c-.5-1.53-.93-3.09-1.26-4.69.33,1.6.76,3.16,1.26,4.69Z"/>
      <path class="cls-1" d="M376.46,90.85c1.54.32,3.04.72,4.52,1.2-1.47-.48-2.98-.89-4.52-1.2Z"/>
      <path class="cls-1" d="M397.7,102.3c1.56,1.56,2.99,3.25,4.3,5.04-1.3-1.79-2.73-3.48-4.3-5.04Z"/>
      <path class="cls-1" d="M385.63,93.88c.51.24,1.01.48,1.51.74-.5-.25-1-.5-1.51-.74Z"/>
      <path class="cls-1" d="M391.96,97.51c1.43.99,2.79,2.07,4.08,3.22-1.29-1.16-2.65-2.23-4.08-3.22Z"/>
      <path class="cls-1" d="M109.47,743.44c-2.6-1.65-5-3.57-7.17-5.74,2.17,2.17,4.57,4.09,7.17,5.74Z"/>
      <path class="cls-1" d="M90.34,713.27c.13,1.08.3,2.15.51,3.2-.22-1.05-.38-2.12-.51-3.2h0Z"/>
      <path class="cls-1" d="M382.44,747.45c13.51-4.95,23.77-16.63,26.71-30.99-2.94,14.35-13.2,26.04-26.71,30.99Z"/>
      <path class="cls-1" d="M409.66,713.27c-.13,1.08-.3,2.15-.51,3.2.22-1.05.38-2.12.51-3.2h0Z"/>
      <path class="cls-4" d="M372.29,210.22c1.41.14,2.8.36,4.17.64-1.37-.28-2.76-.49-4.17-.64Z"/>
      <path class="cls-4" d="M405.41,232.91c.32.63.62,1.26.91,1.9-.29-.64-.59-1.28-.91-1.9Z"/>
      <path class="cls-4" d="M403.53,229.61c.28.45.56.9.82,1.36-.27-.46-.54-.91-.82-1.36Z"/>
      <path class="cls-4" d="M391.96,217.51c1.43.99,2.79,2.07,4.08,3.22-1.29-1.16-2.65-2.23-4.08-3.22Z"/>
      <path class="cls-4" d="M376.46,210.85c1.54.32,3.04.72,4.52,1.2-1.47-.48-2.98-.89-4.52-1.2Z"/>
      <path class="cls-4" d="M397.7,222.3c1.56,1.56,2.99,3.25,4.3,5.04-1.3-1.79-2.73-3.48-4.3-5.04Z"/>
      <path class="cls-4" d="M385.63,213.88c.51.24,1.01.48,1.51.74-.5-.25-1-.5-1.51-.74Z"/>
      <path class="cls-2" d="M489.59,80.59c-6.65-15.73-16.16-29.84-28.25-41.93-12.09-12.09-26.2-21.6-41.93-28.25-16.33-6.91-33.63-10.41-51.41-10.41h-236c-17.78,0-35.08,3.5-51.41,10.41-15.73,6.65-29.84,16.16-41.93,28.25-12.09,12.09-21.6,26.2-28.25,41.93C3.5,96.92,0,114.22,0,132v120c0-17.78,3.5-35.08,10.41-51.41,6.65-15.73,16.16-29.84,28.25-41.93,12.09-12.09,26.2-21.6,41.93-28.25,3.21-1.36,6.46-2.58,9.75-3.68.05-.38.09-.76.14-1.13,2.76-18.07,17.05-32.36,35.12-35.12,2.09-.32,4.22-.48,6.4-.48h236c1.45,0,2.88.07,4.29.22,1.41.14,2.8.36,4.17.64,1.54.32,3.04.72,4.52,1.2,1.59.52,3.14,1.13,4.65,1.82.51.24,1.01.48,1.51.74,1.68.86,3.29,1.83,4.82,2.89,1.43.99,2.79,2.07,4.08,3.22.57.51,1.12,1.03,1.66,1.57,1.56,1.56,2.99,3.25,4.3,5.04.54.74,1.05,1.49,1.53,2.26.28.45.56.9.82,1.36.37.64.72,1.28,1.06,1.94.32.63.62,1.26.91,1.9,1.52,3.39,2.62,7,3.2,10.79.06.37.1.75.14,1.13,3.28,1.09,6.54,2.32,9.75,3.68,15.73,6.65,29.84,16.16,41.93,28.25,12.09,12.09,21.6,26.2,28.25,41.93,6.91,16.33,10.41,33.63,10.41,51.41v-120c0-17.78-3.5-35.08-10.41-51.41Z"/>
      <path class="cls-4" d="M405.41,352.91c.32.63.62,1.26.91,1.9-.29-.64-.59-1.28-.91-1.9Z"/>
      <path class="cls-4" d="M397.7,342.3c1.56,1.56,2.99,3.25,4.3,5.04-1.3-1.79-2.73-3.48-4.3-5.04Z"/>
      <path class="cls-4" d="M391.96,337.51c1.43.99,2.79,2.07,4.08,3.22-1.29-1.16-2.65-2.23-4.08-3.22Z"/>
      <path class="cls-4" d="M376.46,330.85c1.54.32,3.04.72,4.52,1.2-1.47-.48-2.98-.89-4.52-1.2Z"/>
      <path class="cls-4" d="M385.63,333.88c.51.24,1.01.48,1.51.74-.5-.25-1-.5-1.51-.74Z"/>
      <path class="cls-4" d="M372.29,330.22c1.41.14,2.8.36,4.17.64-1.37-.28-2.76-.49-4.17-.64Z"/>
      <path class="cls-4" d="M403.53,349.61c.28.45.56.9.82,1.36-.27-.46-.54-.91-.82-1.36Z"/>
      <path class="cls-3" d="M409.66,713.27c.04-.32.09-.65.12-.97-.03.33-.08.65-.12.97h0Z"/>
      <path class="cls-3" d="M90.22,712.29c.03.33.08.65.12.97h0c-.04-.32-.09-.65-.12-.97Z"/>
      <path class="cls-3" d="M461.34,158.66c-12.09-12.09-26.2-21.6-41.93-28.25-3.21-1.36-6.46-2.58-9.75-3.68-13.41-4.47-27.38-6.73-41.66-6.73h-236c-14.28,0-28.25,2.27-41.66,6.73-3.28,1.09-6.54,2.32-9.75,3.68-15.73,6.65-29.84,16.16-41.93,28.25-12.09,12.09-21.6,26.2-28.25,41.93C3.5,216.92,0,234.22,0,252v120c0-17.78,3.5-35.08,10.41-51.41,6.65-15.73,16.16-29.84,28.25-41.93,12.09-12.09,26.2-21.6,41.93-28.25,3.21-1.36,6.46-2.58,9.75-3.68.05-.38.09-.76.14-1.13,2.76-18.07,17.05-32.36,35.12-35.12,2.09-.32,4.22-.48,6.4-.48h236c1.45,0,2.88.07,4.29.22,1.41.14,2.8.36,4.17.64,1.54.32,3.04.72,4.52,1.2,1.59.52,3.14,1.13,4.65,1.82.51.24,1.01.48,1.51.74,1.68.86,3.29,1.83,4.82,2.89,1.43.99,2.79,2.07,4.08,3.22.57.51,1.12,1.03,1.66,1.57,1.56,1.56,2.99,3.25,4.3,5.04.54.74,1.05,1.49,1.53,2.26.28.45.56.9.82,1.36.37.64.72,1.28,1.06,1.94.32.63.62,1.26.91,1.9,1.52,3.39,2.62,7,3.2,10.79.06.37.1.75.14,1.13,3.28,1.09,6.54,2.32,9.75,3.68,15.73,6.65,29.84,16.16,41.93,28.25,12.09,12.09,21.6,26.2,28.25,41.93,6.91,16.33,10.41,33.63,10.41,51.41v-120c0-17.78-3.5-35.08-10.41-51.41-6.65-15.73-16.16-29.84-28.25-41.93Z"/>
      <path class="cls-5" d="M489.59,320.59c-6.65-15.73-16.16-29.84-28.25-41.93-12.09-12.09-26.2-21.6-41.93-28.25-3.21-1.36-6.46-2.58-9.75-3.68-13.41-4.47-27.38-6.73-41.66-6.73h-236c-14.28,0-28.25,2.27-41.66,6.73-3.28,1.09-6.54,2.32-9.75,3.68-15.73,6.65-29.84,16.16-41.93,28.25-12.09,12.09-21.6,26.2-28.25,41.93-6.91,16.33-10.41,33.63-10.41,51.41v336c0,17.78,3.5,35.08,10.41,51.41,6.65,15.73,16.16,29.84,28.25,41.93,12.09,12.09,26.2,21.6,41.93,28.25,16.33,6.91,33.63,10.41,51.41,10.41h236c17.78,0,35.08-3.5,51.41-10.41,15.73-6.65,29.84-16.16,41.93-28.25,12.09-12.09,21.6-26.2,28.25-41.93,6.91-16.33,10.41-33.63,10.41-51.41v-336c0-17.78-3.5-35.08-10.41-51.41ZM410,468v240c0,1.45-.07,2.88-.22,4.29-.03.33-.08.65-.12.97-.13,1.08-.3,2.15-.51,3.2-2.94,14.35-13.2,26.04-26.71,30.99-1.93.71-3.93,1.28-5.98,1.7-1.37.28-2.76.49-4.17.64-1.41.14-2.84.22-4.29.22h-236c-2.17,0-4.31-.17-6.4-.48-3.33-.51-6.53-1.42-9.55-2.66-1.07-.44-2.12-.93-3.15-1.45-1.18-.6-2.33-1.26-3.44-1.97-2.6-1.65-5-3.57-7.17-5.74-.02-.02-.04-.05-.07-.07-.85-.86-1.66-1.75-2.44-2.68-.16-.19-.32-.38-.47-.58-.63-.78-1.24-1.59-1.81-2.42-.25-.36-.49-.72-.73-1.09-1.14-1.75-2.15-3.59-3.02-5.5-.62-1.37-1.17-2.78-1.65-4.22-.5-1.53-.93-3.09-1.26-4.69-.22-1.05-.38-2.12-.51-3.2-.04-.32-.09-.65-.12-.97-.14-1.41-.22-2.84-.22-4.29v-336c0-2.17.17-4.31.48-6.4,2.76-18.07,17.05-32.36,35.12-35.12,2.09-.32,4.22-.48,6.4-.48h236c1.45,0,2.88.07,4.29.22,1.41.14,2.8.36,4.17.64,1.54.32,3.04.72,4.52,1.2,1.59.52,3.14,1.13,4.65,1.82.51.24,1.01.48,1.51.74,1.68.86,3.29,1.83,4.82,2.89,1.43.99,2.79,2.07,4.08,3.22.57.51,1.12,1.03,1.66,1.57,1.56,1.56,2.99,3.25,4.3,5.04.54.74,1.05,1.49,1.53,2.26.28.45.56.9.82,1.36.37.64.72,1.28,1.06,1.94.32.63.62,1.26.91,1.9,1.52,3.39,2.62,7,3.2,10.79.32,2.09.48,4.22.48,6.4v96Z"/>
    </g>
  </g>
</svg>